<?xml version="1.0" standalone="no"?>
<!DOCTYPE svg PUBLIC "-//W3C//DTD SVG 20010904//EN"
 "http://www.w3.org/TR/2001/REC-SVG-20010904/DTD/svg10.dtd">
<svg version="1.0" xmlns="http://www.w3.org/2000/svg"
 width="575.000000pt" height="464.000000pt" viewBox="0 0 575.000000 464.000000"
 preserveAspectRatio="xMidYMid meet">

<g transform="translate(0.000000,464.000000) scale(0.100000,-0.100000)"
fill="#fff" stroke="none">
<path d="M2825 4560 c-46 -7 -93 -30 -116 -56 -47 -53 -66 -141 -49 -222 28
-127 129 -188 271 -162 55 10 61 9 100 -15 43 -28 48 -27 67 17 10 25 9 29
-19 45 -20 12 -27 22 -23 33 44 101 44 200 0 275 -40 67 -131 101 -231 85z
m110 -120 c15 -15 20 -37 23 -91 5 -84 -3 -97 -46 -75 -40 21 -49 20 -55 -3
-3 -13 3 -25 17 -34 26 -18 16 -32 -18 -23 -49 12 -76 61 -76 138 0 41 26 93
53 106 29 15 77 6 102 -18z"/>
<path d="M3227 4538 c-2 -8 -15 -75 -27 -151 -19 -115 -21 -144 -11 -177 25
-85 100 -131 219 -133 66 -2 106 18 140 67 24 35 61 196 65 285 l2 56 -53 9
c-29 5 -55 6 -58 4 -3 -3 -16 -68 -29 -143 -15 -87 -31 -145 -41 -156 -21 -23
-71 -25 -102 -3 -28 19 -28 49 -1 205 13 69 18 124 13 129 -5 4 -32 11 -60 15
-39 5 -53 3 -57 -7z"/>
<path d="M2226 4479 c-22 -5 -42 -11 -44 -13 -5 -5 75 -372 88 -402 8 -20 11
-21 62 -9 31 7 54 17 55 26 2 8 -16 102 -40 209 -48 216 -43 208 -121 189z"/>
<path d="M1989 4413 l-54 -28 -9 -67 c-5 -45 -13 -68 -21 -68 -7 0 -15 3 -17
8 -5 12 -85 72 -96 72 -17 0 -112 -42 -112 -50 0 -5 41 -38 90 -74 50 -36 90
-71 90 -77 0 -27 -43 -225 -50 -233 -5 -5 -43 21 -87 61 -133 118 -246 213
-254 213 -15 0 -119 -65 -119 -75 0 -23 69 -437 73 -441 3 -3 28 7 56 23 51
28 51 28 45 68 -5 40 -5 40 56 78 61 37 62 38 83 20 12 -10 25 -22 28 -26 3
-5 28 5 55 21 27 15 81 41 121 56 l72 27 10 50 c6 28 11 61 11 74 0 40 18 38
80 -10 l59 -46 57 23 c32 13 59 28 60 33 2 6 -42 42 -96 80 -55 39 -100 73
-100 77 0 4 9 54 20 110 22 115 24 128 12 128 -5 0 -33 -12 -63 -27z m-464
-434 c49 -49 49 -51 30 -65 -57 -43 -55 -44 -75 36 -6 25 -13 53 -16 63 -9 29
10 19 61 -34z"/>
<path d="M3695 4238 c-35 -112 -61 -206 -57 -210 6 -6 309 -118 320 -118 1 0
6 10 11 23 21 55 22 67 9 71 -91 29 -198 71 -198 78 0 5 6 24 14 43 l15 34 90
-32 c97 -34 104 -33 115 18 6 30 6 30 -80 60 -48 17 -89 36 -92 43 -2 7 0 24
6 37 l11 24 101 -34 101 -34 15 36 c9 20 12 39 7 44 -5 5 -79 34 -166 64
l-157 54 -65 -201z"/>
<path d="M4213 4238 c-18 -23 -193 -345 -193 -354 0 -5 54 -40 120 -78 145
-83 189 -92 238 -51 41 34 54 79 36 124 -19 45 -18 51 9 51 66 1 102 105 57
163 -19 24 -230 157 -249 157 -5 0 -13 -6 -18 -12z m139 -157 c29 -26 31 -31
20 -55 -14 -31 -36 -33 -79 -6 -37 22 -40 35 -17 68 20 29 37 28 76 -7z m-84
-141 c50 -36 57 -74 18 -91 -20 -9 -31 -7 -70 16 -25 15 -46 28 -46 30 0 10
43 75 49 75 5 0 27 -14 49 -30z"/>
<path d="M4532 3816 c-67 -90 -122 -168 -122 -173 0 -6 20 -27 44 -47 l44 -36
52 65 c28 36 56 65 61 65 25 0 30 -42 15 -127 l-15 -87 84 -83 c47 -45 85 -87
85 -92 0 -16 28 -20 60 -8 34 13 26 19 94 -67 29 -36 29 -38 13 -71 l-16 -34
42 -50 42 -49 33 61 c70 131 172 333 172 343 0 19 -72 104 -89 104 -8 0 -100
-32 -204 -71 -103 -40 -190 -69 -193 -66 -3 3 -1 38 6 77 7 39 9 86 6 105 l-7
33 40 -5 c95 -13 163 90 112 172 -21 36 -214 205 -233 205 -2 0 -58 -74 -126
-164z m214 -11 c42 -32 51 -60 28 -86 -9 -10 -22 -19 -28 -19 -15 0 -86 51
-86 62 0 10 41 68 48 68 3 0 20 -11 38 -25z m312 -469 c-18 -31 -38 -56 -44
-56 -10 0 -54 53 -54 65 0 10 125 63 128 54 2 -5 -11 -33 -30 -63z"/>
<path d="M1043 3875 c-43 -18 -109 -87 -128 -132 -33 -79 -10 -165 64 -241 92
-94 196 -95 294 -3 61 56 88 168 53 217 -14 19 -15 18 -60 -3 l-46 -23 7 -45
c8 -60 -21 -95 -78 -95 -32 0 -43 7 -83 51 -40 44 -46 57 -46 94 0 57 36 89
90 82 32 -4 38 -1 63 33 15 21 27 43 27 49 0 30 -102 40 -157 16z"/>
<path d="M1883 3693 c-31 -21 -29 -61 5 -108 45 -64 250 -268 292 -293 48 -27
50 -44 10 -72 -26 -19 -37 -20 -119 -14 l-90 7 -59 -57 c-45 -43 -62 -66 -66
-94 -15 -82 -38 -143 -71 -186 -19 -26 -35 -52 -35 -60 0 -7 32 -50 70 -95 39
-44 70 -84 70 -89 0 -17 -117 -121 -143 -128 -16 -3 -34 -18 -42 -33 -9 -18
-27 -32 -53 -39 -21 -7 -47 -21 -57 -32 -25 -28 -51 -25 -120 15 -33 19 -78
43 -100 54 -22 10 -76 35 -120 56 -52 24 -101 39 -139 43 -80 7 -67 -9 31 -41
43 -14 120 -49 172 -79 107 -60 241 -180 241 -215 0 -11 11 -45 25 -75 17 -36
25 -71 25 -107 0 -42 3 -52 12 -43 9 9 9 33 0 104 -9 73 -9 105 1 148 14 63
40 76 45 23 2 -17 10 -37 17 -43 18 -15 19 -11 34 84 5 38 14 73 20 79 18 18
41 -2 47 -43 4 -22 10 -43 15 -46 9 -5 24 42 36 115 9 49 37 76 53 51 5 -8 10
-41 10 -72 0 -80 17 -73 25 10 8 82 23 132 41 139 7 3 29 -4 47 -16 19 -11 58
-27 87 -34 30 -8 58 -21 64 -29 6 -10 5 -66 -4 -161 -14 -158 -11 -200 21
-303 58 -188 107 -314 169 -434 10 -19 27 -64 38 -100 26 -84 129 -349 146
-376 8 -11 22 -49 31 -85 10 -35 33 -93 51 -129 18 -36 38 -78 44 -94 8 -21
14 -26 22 -18 8 8 0 41 -26 121 -20 60 -36 118 -36 127 0 36 -75 284 -117 389
-24 60 -68 150 -97 200 -30 49 -60 104 -69 120 -20 41 -74 220 -82 275 -4 25
-14 58 -22 73 -11 23 -13 63 -10 195 4 169 19 267 54 345 9 20 13 41 9 45 -7
7 -54 -41 -89 -92 -15 -21 -26 -26 -60 -26 -58 0 -104 26 -152 86 -113 143
-145 189 -145 203 0 9 11 36 24 61 13 25 33 77 45 115 12 39 32 84 46 100 23
28 30 30 87 29 73 0 120 -24 163 -80 14 -18 33 -34 41 -34 13 0 15 11 9 74 -7
72 -6 74 18 87 38 21 148 105 245 187 l87 74 90 -5 c81 -4 98 -9 171 -45 78
-40 146 -103 169 -157 8 -19 8 -19 12 -2 11 45 -35 102 -140 174 -26 18 -47
39 -47 46 0 36 228 24 329 -17 97 -39 220 -126 311 -219 96 -99 164 -201 155
-232 -3 -11 -15 -65 -26 -120 -24 -118 -20 -179 16 -248 49 -96 17 -107 -48
-18 -23 33 -45 60 -49 60 -14 1 -8 -36 7 -49 8 -7 15 -19 15 -28 0 -34 129
-237 252 -394 12 -16 18 -33 14 -43 -7 -20 -41 -17 -206 15 -120 24 -175 14
-237 -43 -31 -27 -29 -58 6 -109 70 -105 81 -125 81 -142 0 -28 -18 -53 -52
-73 -18 -11 -66 -39 -106 -63 -66 -39 -77 -42 -120 -37 l-47 7 29 -26 c35 -31
59 -28 174 18 133 53 249 58 395 18 47 -14 48 -37 4 -67 -41 -28 -67 -29 -74
-3 -7 27 -25 25 -53 -5 -38 -40 -80 -49 -150 -31 -75 19 -80 20 -80 3 0 -8 18
-19 40 -26 44 -13 53 -38 23 -62 -23 -20 -97 -137 -113 -179 -7 -19 -18 -66
-25 -105 -7 -38 -20 -99 -28 -135 -9 -36 -26 -123 -38 -195 -36 -216 -36 -195
0 -195 39 0 45 12 70 136 89 431 105 484 174 575 31 41 67 81 79 87 13 6 61
20 107 32 47 12 110 36 140 55 31 18 81 39 111 46 38 8 64 22 83 42 52 56 60
81 55 187 -3 83 -9 109 -38 180 -30 71 -49 98 -129 183 -102 109 -131 159
-131 227 0 60 10 72 61 76 291 24 356 36 571 105 207 67 301 129 349 230 l23
51 -28 54 c-35 67 -79 102 -190 154 -147 67 -169 72 -402 77 -229 6 -358 -8
-436 -48 -41 -21 -88 -25 -88 -8 0 6 -33 43 -72 81 l-73 69 3 149 c3 102 0
155 -8 172 -15 29 -50 57 -71 58 -9 0 -77 -30 -150 -67 -112 -56 -146 -68
-204 -74 -38 -4 -117 -13 -174 -19 -72 -8 -118 -8 -150 -1 -90 20 -151 23
-200 10 -48 -12 -51 -11 -145 30 -54 24 -134 55 -179 71 -45 15 -106 37 -135
49 -64 26 -166 28 -199 4z m2462 -566 c28 -8 93 -28 146 -44 142 -44 210 -88
224 -146 7 -25 1 -34 -42 -76 -48 -47 -164 -101 -215 -101 -12 0 -43 21 -70
46 -92 86 -241 138 -383 134 -33 -1 -68 -2 -77 -1 -33 2 -18 31 35 65 69 46
163 61 305 49 56 -5 102 -6 102 -3 0 3 -19 14 -43 24 -34 16 -73 20 -207 24
-172 4 -197 1 -355 -54 -62 -21 -87 -19 -83 9 4 32 78 64 208 90 57 12 405 -1
455 -16z m-302 -243 c19 -20 -67 -84 -114 -84 -35 0 -99 20 -99 30 0 16 45 40
91 49 54 11 114 13 122 5z m226 -48 c38 -20 93 -84 89 -104 -2 -10 -38 -35
-82 -57 l-80 -40 -145 -5 c-81 -3 -156 -3 -168 -1 -58 9 -10 47 202 157 66 35
128 63 138 64 10 0 31 -7 46 -14z m-444 -86 c35 -13 28 -29 -28 -64 -41 -25
-51 -27 -72 -18 -29 13 -51 53 -42 76 7 19 99 22 142 6z m-331 -676 c12 -32 6
-84 -11 -91 -19 -7 -63 38 -63 66 0 37 61 59 74 25z m491 -18 c15 -22 37 -175
30 -200 -2 -6 -6 -23 -9 -38 -4 -16 -13 -28 -22 -28 -13 0 -14 11 -8 79 8 93
1 127 -26 136 -24 8 -35 41 -20 60 18 22 37 18 55 -9z m-17 -303 c5 -17 -35
-53 -58 -53 -29 0 -25 25 8 49 28 21 43 22 50 4z"/>
<path d="M4560 2963 c0 -18 53 -73 71 -73 24 0 25 32 2 53 -21 19 -73 33 -73
20z"/>
<path d="M640 3468 c-22 -24 -42 -51 -46 -60 -6 -19 191 -408 206 -408 5 0 25
21 45 47 33 43 34 48 20 69 -21 32 -19 44 11 79 14 17 34 40 45 53 17 22 21
23 54 11 34 -13 36 -12 65 21 48 55 54 69 33 77 -53 19 -379 146 -385 150 -4
2 -26 -15 -48 -39z m154 -124 c31 -14 56 -28 56 -31 0 -13 -43 -63 -54 -63
-11 0 -76 97 -76 113 0 12 15 8 74 -19z"/>
<path d="M5230 3108 c-91 -55 -171 -103 -179 -107 -12 -7 -4 -28 40 -107 66
-119 101 -158 158 -175 38 -11 50 -11 95 5 111 40 186 122 186 204 0 30 -14
68 -52 141 -83 159 -56 155 -248 39z m175 -98 c31 -61 16 -97 -58 -140 -62
-36 -99 -38 -127 -8 -23 26 -38 70 -24 75 5 2 45 26 89 53 44 27 86 49 92 49
7 1 19 -12 28 -29z"/>
<path d="M2950 3141 c0 -15 41 -90 70 -128 10 -12 40 -40 67 -62 28 -22 71
-61 96 -88 70 -73 59 -28 -12 54 -117 133 -220 238 -221 224z"/>
<path d="M430 3133 c-8 -3 -25 -15 -38 -26 -32 -30 -156 -257 -146 -267 23
-21 348 -209 355 -205 11 7 110 191 132 245 24 57 15 104 -25 142 -34 32 -90
38 -124 14 -18 -13 -20 -12 -29 22 -16 55 -78 92 -125 75z m29 -133 c29 -15
32 -38 11 -81 -23 -43 -34 -47 -69 -20 -26 20 -24 42 10 85 23 29 24 30 48 16z
m172 -91 c10 -19 -5 -65 -33 -103 -14 -18 -16 -18 -50 5 l-36 23 19 38 c33 64
76 80 100 37z"/>
<path d="M3495 3083 c4 -16 9 -58 10 -95 4 -79 10 -94 32 -77 10 9 13 23 9 46
-3 18 -9 50 -12 71 -6 44 -24 82 -37 82 -5 0 -6 -12 -2 -27z"/>
<path d="M2060 3084 c-65 -22 -91 -39 -96 -63 -3 -14 -10 -39 -15 -55 -13 -43
-12 -46 21 -46 24 0 31 -5 36 -27 4 -16 23 -46 44 -68 21 -22 45 -55 54 -72
17 -34 36 -44 36 -20 0 8 9 22 20 32 17 15 24 16 46 7 34 -16 38 -15 71 12 16
13 39 26 52 28 22 3 24 8 28 91 4 77 3 87 -12 87 -15 0 -17 -7 -12 -40 3 -26
1 -43 -8 -50 -11 -9 -34 9 -107 84 -89 91 -122 112 -158 100z"/>
<path d="M2550 2971 c0 -11 -15 -34 -32 -51 l-33 -31 40 -35 c53 -48 97 -69
191 -94 137 -35 145 -26 47 53 -38 30 -95 82 -128 116 -62 63 -85 75 -85 42z
m45 -86 c0 -28 -29 -25 -33 3 -3 19 0 23 15 20 10 -2 18 -12 18 -23z"/>
<path d="M2370 2760 c0 -5 5 -10 10 -10 6 0 10 5 10 10 0 6 -4 10 -10 10 -5 0
-10 -4 -10 -10z"/>
<path d="M2010 2743 c0 -19 36 -83 47 -83 21 0 15 45 -10 68 -23 22 -37 28
-37 15z"/>
<path d="M5460 2684 c-134 -47 -184 -163 -130 -306 19 -53 63 -104 107 -127
63 -32 198 4 259 70 55 60 66 124 37 216 -42 133 -148 190 -273 147z m157
-136 c51 -56 32 -126 -43 -159 -62 -28 -121 -23 -147 13 -42 56 -19 114 58
149 56 26 107 24 132 -3z"/>
<path d="M118 2563 c-40 -92 -44 -85 103 -223 164 -155 182 -171 193 -167 5 2
18 27 29 56 l20 53 -28 22 -29 23 25 69 c25 67 27 69 63 72 34 3 39 7 61 59
14 30 25 59 25 64 0 4 -100 10 -222 11 l-221 3 -19 -42z m195 -73 c40 0 47 -3
47 -20 0 -25 -21 -70 -32 -70 -14 0 -108 81 -108 93 0 5 10 7 23 3 12 -3 43
-6 70 -6z"/>
<path d="M3050 2566 c0 -2 20 -33 44 -69 24 -36 46 -71 49 -79 4 -11 7 -10 16
1 13 20 -11 77 -51 119 -27 27 -58 42 -58 28z"/>
<path d="M2376 2435 c-3 -9 -6 -63 -6 -119 0 -113 27 -262 62 -336 11 -25 33
-72 48 -106 32 -69 143 -242 206 -320 65 -80 155 -230 169 -283 7 -26 17 -56
23 -66 17 -34 70 -198 77 -242 8 -50 20 -55 29 -13 10 52 -14 180 -53 287 -37
100 -89 184 -266 433 -29 41 -64 95 -77 120 -12 25 -40 72 -60 105 -56 91
-115 302 -121 434 -5 100 -17 141 -31 106z"/>
<path d="M2076 2272 c-13 -22 -36 -129 -36 -173 0 -25 7 -68 15 -95 9 -27 27
-103 41 -169 15 -70 35 -135 48 -155 12 -19 29 -51 38 -70 9 -19 39 -82 65
-140 86 -183 112 -244 123 -287 12 -49 40 -60 40 -15 -1 67 -53 207 -202 540
-67 151 -109 325 -108 452 0 89 -10 135 -24 112z"/>
<path d="M2601 1984 c0 -11 3 -14 6 -6 3 7 2 16 -1 19 -3 4 -6 -2 -5 -13z"/>
<path d="M2620 1952 c0 -22 13 -42 26 -42 20 0 17 14 -6 35 -11 10 -20 13 -20
7z"/>
<path d="M2667 1854 c-13 -14 28 -92 95 -181 40 -52 84 -111 97 -129 23 -33
41 -44 41 -25 0 6 -5 13 -11 16 -5 4 -15 18 -20 32 -13 36 5 53 56 53 48 0
107 18 100 30 -3 5 -24 8 -48 8 -107 -2 -204 53 -267 152 -34 54 -34 53 -43
44z"/>
<path d="M3290 1335 c0 -8 5 -15 10 -15 6 0 10 7 10 15 0 8 -4 15 -10 15 -5 0
-10 -7 -10 -15z"/>
<path d="M3231 1215 c-12 -31 -21 -58 -21 -62 0 -3 -14 -33 -30 -67 -19 -39
-34 -91 -42 -145 -10 -76 -14 -85 -40 -100 -33 -19 -35 -30 -7 -65 31 -39 54
-49 80 -34 20 12 20 18 14 108 -6 99 3 151 66 346 22 69 22 74 10 74 -5 0 -19
-25 -30 -55z"/>
<path d="M2740 830 c0 -15 29 -71 48 -92 15 -18 62 -25 62 -10 0 11 -91 112
-101 112 -5 0 -9 -5 -9 -10z"/>
<path d="M230 471 c-96 -31 -140 -83 -147 -173 -7 -81 9 -136 49 -177 45 -46
87 -62 167 -62 104 0 180 42 197 109 8 29 8 28 -50 44 -45 12 -50 11 -60 -6
-24 -41 -46 -56 -84 -56 -50 0 -79 27 -87 83 -10 68 8 122 49 141 48 22 63 20
97 -14 29 -29 31 -29 84 -18 30 6 55 14 55 18 0 21 -51 78 -85 95 -43 21 -143
30 -185 16z"/>
<path d="M693 462 c-102 -42 -148 -135 -123 -247 24 -105 98 -157 224 -157
148 0 226 72 226 210 0 102 -54 176 -149 202 -53 15 -130 11 -178 -8z m167
-108 c22 -21 25 -33 24 -91 0 -59 -3 -68 -28 -90 -27 -23 -75 -30 -111 -17
-26 10 -45 59 -45 114 0 63 12 88 53 106 40 17 75 10 107 -22z"/>
<path d="M5410 471 c-50 -16 -90 -42 -117 -78 -24 -31 -29 -48 -31 -113 -5
-95 17 -146 80 -187 35 -23 55 -29 121 -32 172 -7 247 57 247 211 0 83 -16
119 -72 161 -55 42 -158 59 -228 38z m105 -91 c40 -15 56 -36 62 -80 13 -92
-21 -150 -88 -150 -54 0 -90 33 -96 90 -8 70 7 112 47 132 41 21 41 21 75 8z"/>
<path d="M1100 265 l0 -206 63 3 62 3 5 109 5 110 83 -112 82 -113 60 3 60 3
2 200 3 200 -62 3 -63 3 0 -106 c0 -58 -4 -105 -8 -105 -4 0 -43 47 -86 105
l-78 105 -64 0 -64 0 0 -205z"/>
<path d="M1622 268 l3 -203 65 0 65 0 3 83 3 82 84 0 85 0 0 40 0 40 -85 0
-85 0 0 40 0 40 101 0 100 0 -3 38 -3 37 -168 3 -167 2 2 -202z"/>
<path d="M2044 457 c-2 -7 -3 -98 -2 -202 l3 -190 65 0 65 0 3 203 2 202 -65
0 c-44 0 -67 -4 -71 -13z"/>
<path d="M2280 265 l0 -206 63 3 62 3 5 109 5 110 83 -112 83 -113 62 3 62 3
-2 180 c-1 99 -2 190 -2 203 -1 20 -6 22 -61 22 l-60 0 0 -105 c0 -58 -4 -105
-8 -105 -4 0 -43 47 -86 105 l-78 105 -64 0 -64 0 0 -205z"/>
<path d="M2911 453 c-17 -34 -151 -371 -151 -382 0 -7 24 -11 65 -11 64 0 64
0 73 33 l8 32 84 0 84 0 8 -33 c9 -32 9 -32 72 -32 34 0 65 3 68 6 3 3 -30 95
-75 205 l-80 199 -73 0 c-60 0 -75 -3 -83 -17z m105 -155 c9 -29 19 -59 22
-65 3 -9 -10 -13 -48 -13 -38 0 -51 4 -48 13 3 6 13 36 22 65 10 28 21 52 26
52 5 0 16 -24 26 -52z"/>
<path d="M3280 264 l0 -205 53 3 52 3 5 150 5 150 33 -120 c57 -204 46 -185
102 -185 37 0 49 4 53 17 2 10 19 70 36 133 17 63 35 122 39 130 4 8 9 -50 12
-130 l5 -145 50 0 50 0 3 203 2 202 -89 0 -90 0 -15 -52 c-8 -29 -23 -81 -32
-115 -10 -35 -20 -63 -24 -63 -4 0 -15 28 -25 63 -9 34 -23 86 -32 115 l-14
52 -90 0 -89 0 0 -206z"/>
<path d="M3872 268 l3 -203 175 -3 c96 -1 179 -1 185 2 6 2 9 21 7 45 l-4 41
-114 0 c-112 0 -114 0 -120 24 -14 57 -8 61 109 64 l108 3 -3 37 -3 37 -105 5
-105 5 0 30 0 30 118 3 118 3 -3 37 -3 37 -183 3 -182 2 2 -202z"/>
<path d="M4324 457 c-2 -7 -3 -98 -2 -202 l3 -190 60 0 60 0 3 103 c2 70 6
102 14 100 6 -2 43 -49 83 -103 l71 -100 65 0 64 0 3 203 2 202 -65 0 -65 0 0
-106 c0 -60 -4 -104 -9 -102 -5 2 -43 49 -85 106 l-76 102 -60 0 c-40 0 -62
-4 -66 -13z"/>
<path d="M4812 423 l3 -48 67 -3 67 -3 3 -152 3 -152 65 0 65 0 3 152 3 152
67 3 67 3 3 48 3 47 -211 0 -211 0 3 -47z"/>
</g>
</svg>
