<svg width="70" height="71" viewBox="0 0 70 71" fill="none" xmlns="http://www.w3.org/2000/svg">
<path d="M68.8484 1.16199C68.4592 0.759029 67.9674 0.480035 67.4308 0.357809C66.8943 0.235584 66.3354 0.275208 65.8198 0.472024L2.3615 24.4708C1.81422 24.6867 1.34305 25.0706 1.01056 25.5716C0.678071 26.0726 0.5 26.6669 0.5 27.2756C0.5 27.8844 0.678071 28.4787 1.01056 28.9797C1.34305 29.4807 1.81422 29.8646 2.3615 30.0805L30.0524 41.5999L41.1287 70.3984C41.3368 70.9426 41.6935 71.4115 42.1548 71.7473C42.6162 72.0832 43.1619 72.2712 43.7247 72.2883C44.3077 72.2759 44.8733 72.08 45.347 71.7266C45.8207 71.3732 46.1804 70.8787 46.3785 70.3084L69.4542 4.31183C69.6507 3.78108 69.6981 3.20317 69.5909 2.64548C69.4836 2.08779 69.2261 1.5733 68.8484 1.16199V1.16199ZM43.7247 60.8889L35.6771 39.89L49.4937 25.5207L45.4266 21.291L31.4946 35.7802L11.4187 27.2906L61.9834 8.30162L43.7247 60.8889Z" fill="#FFA62B"/>
</svg>
